<svg version="1.1" xmlns="http://www.w3.org/2000/svg" xmlns:xlink="http://www.w3.org/1999/xlink"><defs class="svg-crowbar"><style type="text/css"></style></defs><g class="nvd3 nv-wrap nv-multiBarWithLegend" transform="translate(60,30)"><g><g class="nv-x nv-axis" transform="translate(0,370)"><g class="nvd3 nv-wrap nv-axis"><g><g class="tick" transform="translate(83.17073170731707,0)" style="opacity: 1;"><line y2="-370" x2="0" style="opacity: 1;"></line><text y="7" dy=".71em" x="0" style="text-anchor: middle; opacity: 1;">Black</text></g><g class="tick" transform="translate(234.390243902439,0)" style="opacity: 1;"><line y2="-370" x2="0" style="opacity: 1;"></line><text y="7" dy=".71em" x="0" style="text-anchor: middle; opacity: 1;">Brown</text></g><g class="tick" transform="translate(385.609756097561,0)" style="opacity: 1;"><line y2="-370" x2="0" style="opacity: 1;"></line><text y="7" dy=".71em" x="0" style="text-anchor: middle; opacity: 1;">Red</text></g><g class="tick" transform="translate(536.8292682926829,0)" style="opacity: 1;"><line y2="-370" x2="0" style="opacity: 1;"></line><text y="7" dy=".71em" x="0" style="text-anchor: middle; opacity: 1;">Blond</text></g><path class="domain" d="M0,0V0H620V0"></path><text class="nv-axislabel" text-anchor="middle" y="36" x="310" style="opacity: 1;"></text></g></g></g><g class="nv-y nv-axis"><g class="nvd3 nv-wrap nv-axis"><g><g class="tick" transform="translate(0,370)" style="opacity: 1;"><line x2="620" y2="0"></line><text x="-3" dy=".32em" opacity="0" y="0" style="text-anchor: end;">0.0</text></g><g class="tick" transform="translate(0,257.8787878787879)" style="opacity: 1;"><line x2="620" y2="0"></line><text x="-3" dy=".32em" opacity="1" y="0" style="text-anchor: end;">20.0</text></g><g class="tick" transform="translate(0,145.75757575757575)" style="opacity: 1;"><line x2="620" y2="0"></line><text x="-3" dy=".32em" opacity="1" y="0" style="text-anchor: end;">40.0</text></g><g class="tick" transform="translate(0,33.636363636363626)" style="opacity: 1;"><line x2="620" y2="0"></line><text x="-3" dy=".32em" opacity="1" y="0" style="text-anchor: end;">60.0</text></g><g class="tick" transform="translate(0,341.969696969697)" style="opacity: 1;"><line x2="620" y2="0"></line><text x="-3" y="0" dy=".32em" opacity="1" style="text-anchor: end;">5.0</text></g><g class="tick" transform="translate(0,313.93939393939394)" style="opacity: 1;"><line x2="620" y2="0"></line><text x="-3" y="0" dy=".32em" opacity="1" style="text-anchor: end;">10.0</text></g><g class="tick" transform="translate(0,285.9090909090909)" style="opacity: 1;"><line x2="620" y2="0"></line><text x="-3" y="0" dy=".32em" opacity="1" style="text-anchor: end;">15.0</text></g><g class="tick" transform="translate(0,229.84848484848484)" style="opacity: 1;"><line x2="620" y2="0"></line><text x="-3" y="0" dy=".32em" opacity="1" style="text-anchor: end;">25.0</text></g><g class="tick" transform="translate(0,201.8181818181818)" style="opacity: 1;"><line x2="620" y2="0"></line><text x="-3" y="0" dy=".32em" opacity="1" style="text-anchor: end;">30.0</text></g><g class="tick" transform="translate(0,173.7878787878788)" style="opacity: 1;"><line x2="620" y2="0"></line><text x="-3" y="0" dy=".32em" opacity="1" style="text-anchor: end;">35.0</text></g><g class="tick" transform="translate(0,117.72727272727269)" style="opacity: 1;"><line x2="620" y2="0"></line><text x="-3" y="0" dy=".32em" opacity="1" style="text-anchor: end;">45.0</text></g><g class="tick" transform="translate(0,89.69696969696969)" style="opacity: 1;"><line x2="620" y2="0"></line><text x="-3" y="0" dy=".32em" opacity="1" style="text-anchor: end;">50.0</text></g><g class="tick" transform="translate(0,61.66666666666663)" style="opacity: 1;"><line x2="620" y2="0"></line><text x="-3" y="0" dy=".32em" opacity="1" style="text-anchor: end;">55.0</text></g><g class="tick" transform="translate(0,5.606060606060623)" opacity="0" style="opacity: 1;"><line x2="620" y2="0"></line><text x="-3" y="0" dy=".32em" opacity="0" style="text-anchor: end;">65.0</text></g><path class="domain" d="M0,0H0V370H0"></path><text class="nv-axislabel" transform="rotate(-90)" y="-63" x="-185" style="text-anchor: middle;"></text></g><g class="nv-axisMaxMin" transform="translate(0,370)"><text dy=".32em" y="0" x="-3" text-anchor="end" style="opacity: 1;">0.0</text></g><g class="nv-axisMaxMin" transform="translate(0,0)"><text dy=".32em" y="0" x="-3" text-anchor="end" style="opacity: 1;">66.0</text></g></g></g><g class="nv-barsWrap"><g class="nvd3 nv-wrap nv-multibar" transform="translate(0,0)"><defs><clipPath id="nv-edge-clip-2273"><rect width="620" height="370"></rect></clipPath></defs><g clip-path="url(#nv-edge-clip-2273)"><g class="nv-groups"><g class="nv-group nv-series-0" style="stroke-opacity: 1; fill-opacity: 0.75; fill: #a52a2a; stroke: #a52a2a;"><rect class="nv-bar positive" x="0" y="168.1818181818182" height="201.8181818181818" width="34.02439024390244" transform="translate(15.121951219512196,0)" style="fill: #a52a2a; stroke: #a52a2a;"></rect><rect class="nv-bar positive" x="0" y="0" height="370" width="34.02439024390244" transform="translate(166.34146341463415,0)" style="fill: #a52a2a; stroke: #a52a2a;"></rect><rect class="nv-bar positive" x="0" y="280.3030303030303" height="89.69696969696969" width="34.02439024390244" transform="translate(317.5609756097561,0)" style="fill: #a52a2a; stroke: #a52a2a;"></rect><rect class="nv-bar positive" x="0" y="347.57575757575756" height="22.424242424242436" width="34.02439024390244" transform="translate(468.780487804878,0)" style="fill: #a52a2a; stroke: #a52a2a;"></rect></g><g class="nv-group nv-series-1" style="stroke-opacity: 1; fill-opacity: 0.75; fill: #0000ff; stroke: #0000ff;"><rect class="nv-bar positive" x="34.02439024390244" y="319.54545454545456" height="50.45454545454544" width="34.02439024390244" transform="translate(15.121951219512196,0)" style="fill: #0000ff; stroke: #0000ff;"></rect><rect class="nv-bar positive" x="34.02439024390244" y="179.3939393939394" height="190.6060606060606" width="34.02439024390244" transform="translate(166.34146341463415,0)" style="fill: #0000ff; stroke: #0000ff;"></rect><rect class="nv-bar positive" x="34.02439024390244" y="330.75757575757575" height="39.24242424242425" width="34.02439024390244" transform="translate(317.5609756097561,0)" style="fill: #0000ff; stroke: #0000ff;"></rect><rect class="nv-bar positive" x="34.02439024390244" y="11.21212121212119" height="358.7878787878788" width="34.02439024390244" transform="translate(468.780487804878,0)" style="fill: #0000ff; stroke: #0000ff;"></rect></g><g class="nv-group nv-series-2" style="stroke-opacity: 1; fill-opacity: 0.75; fill: #594c26; stroke: #594c26;"><rect class="nv-bar positive" x="68.04878048780488" y="341.969696969697" height="28.030303030303003" width="34.02439024390244" transform="translate(15.121951219512196,0)" style="fill: #594c26; stroke: #594c26;"></rect><rect class="nv-bar positive" x="68.04878048780488" y="207.42424242424244" height="162.57575757575756" width="34.02439024390244" transform="translate(166.34146341463415,0)" style="fill: #594c26; stroke: #594c26;"></rect><rect class="nv-bar positive" x="68.04878048780488" y="330.75757575757575" height="39.24242424242425" width="34.02439024390244" transform="translate(317.5609756097561,0)" style="fill: #594c26; stroke: #594c26;"></rect><rect class="nv-bar positive" x="68.04878048780488" y="341.969696969697" height="28.030303030303003" width="34.02439024390244" transform="translate(468.780487804878,0)" style="fill: #594c26; stroke: #594c26;"></rect></g><g class="nv-group nv-series-3" style="stroke-opacity: 1; fill-opacity: 0.75; fill: #008000; stroke: #008000;"><rect class="nv-bar positive" x="102.07317073170731" y="358.7878787878788" height="11.21212121212119" width="34.02439024390244" transform="translate(15.121951219512196,0)" style="fill: #008000; stroke: #008000;"></rect><rect class="nv-bar positive" x="102.07317073170731" y="291.5151515151515" height="78.4848484848485" width="34.02439024390244" transform="translate(166.34146341463415,0)" style="fill: #008000; stroke: #008000;"></rect><rect class="nv-bar positive" x="102.07317073170731" y="330.75757575757575" height="39.24242424242425" width="34.02439024390244" transform="translate(317.5609756097561,0)" style="fill: #008000; stroke: #008000;"></rect><rect class="nv-bar positive" x="102.07317073170731" y="325.1515151515151" height="44.84848484848487" width="34.02439024390244" transform="translate(468.780487804878,0)" style="fill: #008000; stroke: #008000;"></rect></g></g></g></g></g><g class="nv-legendWrap" transform="translate(180,-30)"><g class="nvd3 nv-legend" transform="translate(0,5)"><g transform="translate(202,5)"><g class="nv-series" transform="translate(0,5)"><circle class="nv-legend-symbol" r="5" style="stroke-width: 2px; fill: #a52a2a; stroke: #a52a2a;"></circle><text text-anchor="start" class="nv-legend-text" dy=".32em" dx="8">Brown</text></g><g class="nv-series" transform="translate(63,5)"><circle class="nv-legend-symbol" r="5" style="stroke-width: 2px; fill: #0000ff; stroke: #0000ff;"></circle><text text-anchor="start" class="nv-legend-text" dy=".32em" dx="8">Blue</text></g><g class="nv-series" transform="translate(116,5)"><circle class="nv-legend-symbol" r="5" style="stroke-width: 2px; fill: #594c26; stroke: #594c26;"></circle><text text-anchor="start" class="nv-legend-text" dy=".32em" dx="8">Hazel</text></g><g class="nv-series" transform="translate(176,5)"><circle class="nv-legend-symbol" r="5" style="stroke-width: 2px; fill: #008000; stroke: #008000;"></circle><text text-anchor="start" class="nv-legend-text" dy=".32em" dx="8">Green</text></g></g></g></g><g class="nv-controlsWrap" transform="translate(0,-30)"><g class="nvd3 nv-legend" transform="translate(0,5)"><g transform="translate(32,5)"><g class="nv-series" transform="translate(0,5)"><circle class="nv-legend-symbol" r="5" style="stroke-width: 2px; fill: #444444; stroke: #444444;"></circle><text text-anchor="start" class="nv-legend-text" dy=".32em" dx="8">Grouped</text></g><g class="nv-series disabled" transform="translate(76,5)"><circle class="nv-legend-symbol" r="5" style="stroke-width: 2px; fill: #444444; stroke: #444444;"></circle><text text-anchor="start" class="nv-legend-text" dy=".32em" dx="8">Stacked</text></g></g></g></g></g></g></svg>